<?xml version="1.0" standalone="no"?>
<!DOCTYPE svg PUBLIC "-//W3C//DTD SVG 20010904//EN"
 "http://www.w3.org/TR/2001/REC-SVG-20010904/DTD/svg10.dtd">
<svg version="1.0" xmlns="http://www.w3.org/2000/svg"
 width="160.000000pt" height="148.000000pt" viewBox="0 0 160.000000 148.000000"
 preserveAspectRatio="xMidYMid meet">
<metadata>
Created by potrace 1.10, written by Peter Selinger 2001-2011
</metadata>
<g transform="translate(0.000000,148.000000) scale(0.100000,-0.100000)"
fill="#000000" stroke="none">
<path d="M260 1122 c-6 -2 -10 -14 -10 -28 0 -16 7 -25 23 -29 12 -3 238 -4
501 -3 440 3 480 4 490 20 7 12 7 21 0 28 -9 9 -977 21 -1004 12z"/>
<path d="M254 755 c-4 -8 -4 -22 0 -30 5 -13 68 -15 508 -13 l503 3 0 25 0 25
-503 3 c-440 2 -503 0 -508 -13z"/>
<path d="M263 413 c-7 -2 -13 -16 -13 -29 0 -13 6 -24 13 -24 311 -5 993 2
1001 10 7 7 7 16 0 28 -10 16 -49 17 -500 19 -269 1 -495 -1 -501 -4z"/>
</g>
</svg>
