<?xml version="1.0" standalone="no"?>
<!DOCTYPE svg PUBLIC "-//W3C//DTD SVG 20010904//EN"
 "http://www.w3.org/TR/2001/REC-SVG-20010904/DTD/svg10.dtd">
<svg version="1.0" xmlns="http://www.w3.org/2000/svg"
 width="176.000000pt" height="148.000000pt" viewBox="0 0 176.000000 148.000000"
 preserveAspectRatio="xMidYMid meet">
<metadata>
Created by potrace 1.10, written by Peter Selinger 2001-2011
</metadata>
<g transform="translate(0.000000,148.000000) scale(0.100000,-0.100000)"
fill="#000000" stroke="none">
<path d="M729 1167 c-333 -114 -403 -547 -124 -759 72 -55 145 -80 245 -85
118 -6 194 19 306 102 10 7 35 -11 97 -73 77 -77 107 -97 107 -71 0 6 -39 48
-87 94 l-88 84 27 28 c67 70 108 220 90 329 -20 123 -78 219 -175 291 -112 82
-265 105 -398 60z m312 -44 c312 -146 313 -581 2 -735 -64 -31 -74 -33 -173
-33 -97 0 -110 2 -172 32 -88 41 -160 113 -201 201 -29 62 -32 75 -32 167 1
91 4 106 32 167 50 107 140 185 258 225 25 8 75 12 130 10 76 -2 100 -7 156
-34z"/>
<path d="M870 1057 c0 -9 19 -18 54 -26 108 -24 193 -105 217 -207 7 -27 13
-55 15 -61 7 -26 24 -12 24 20 0 93 -85 216 -177 255 -68 28 -133 38 -133 19z"/>
</g>
</svg>
