<?xml version="1.0" standalone="no"?>
<!DOCTYPE svg PUBLIC "-//W3C//DTD SVG 20010904//EN"
 "http://www.w3.org/TR/2001/REC-SVG-20010904/DTD/svg10.dtd">
<svg version="1.0" xmlns="http://www.w3.org/2000/svg"
 width="166.000000pt" height="148.000000pt" viewBox="0 0 166.000000 148.000000"
 preserveAspectRatio="xMidYMid meet">
<metadata>
Created by potrace 1.10, written by Peter Selinger 2001-2011
</metadata>
<g transform="translate(0.000000,148.000000) scale(0.100000,-0.100000)"
fill="#000000" stroke="none">
<path d="M762 1230 c-67 -41 -78 -131 -22 -193 26 -29 33 -32 90 -32 57 0 64
3 90 32 16 18 32 47 35 66 14 73 -49 147 -125 147 -19 0 -50 -9 -68 -20z m102
-30 c14 -5 32 -23 41 -41 41 -78 -57 -154 -128 -99 -48 38 -41 110 13 137 30
15 41 16 74 3z"/>
<path d="M773 849 c-42 -21 -73 -66 -73 -108 0 -42 33 -91 75 -111 23 -11 47
-20 55 -20 8 0 32 9 55 20 42 20 75 69 75 111 0 42 -31 88 -74 109 -53 25 -61
25 -113 -1z m114 -51 c28 -32 34 -54 22 -85 -14 -36 -38 -52 -80 -53 -83 0
-116 97 -50 147 27 21 85 16 108 -9z"/>
<path d="M774 471 c-86 -37 -93 -171 -12 -221 126 -77 258 81 159 192 -22 25
-36 31 -77 34 -27 2 -59 0 -70 -5z m109 -51 c70 -55 15 -164 -74 -145 -34 8
-57 33 -65 73 -5 26 -1 36 24 62 36 36 77 39 115 10z"/>
</g>
</svg>
