<?xml version="1.0" standalone="no"?>
<!DOCTYPE svg PUBLIC "-//W3C//DTD SVG 20010904//EN"
 "http://www.w3.org/TR/2001/REC-SVG-20010904/DTD/svg10.dtd">
<svg version="1.0" xmlns="http://www.w3.org/2000/svg"
 width="222.000000pt" height="227.000000pt" viewBox="0 0 222.000000 227.000000"
 preserveAspectRatio="xMidYMid meet">
<metadata>
Created by potrace 1.10, written by Peter Selinger 2001-2011
</metadata>
<g transform="translate(0.000000,227.000000) scale(0.100000,-0.100000)"
fill="#000000" stroke="none">
<path d="M161 2248 c-1 -24 3 -28 24 -28 21 0 25 4 24 28 -2 23 -2 24 -6 5 -2
-13 -11 -23 -18 -23 -7 0 -16 10 -18 23 -4 19 -4 18 -6 -5z"/>
<path d="M570 1704 c-294 -261 -540 -480 -547 -487 -10 -9 0 -26 45 -75 l57
-64 493 437 493 436 37 -32 c20 -18 241 -213 490 -433 250 -221 457 -401 461
-401 5 0 31 27 59 60 38 44 48 63 40 72 -16 20 -1077 958 -1086 960 -4 1 -248
-212 -542 -473z m1052 -25 c271 -240 501 -446 511 -457 18 -20 18 -21 0 -46
-10 -14 -23 -27 -30 -30 -16 -7 -28 4 -513 434 -232 206 -432 381 -445 389
-13 8 -33 11 -47 8 -14 -4 -214 -174 -444 -378 -231 -204 -443 -392 -473 -417
l-53 -46 -30 33 c-30 33 -30 34 -11 53 11 10 242 217 514 458 291 258 501 438
511 437 9 -1 239 -198 510 -438z"/>
<path d="M161 2138 c-1 -23 -6 -28 -26 -28 -14 0 -25 -4 -25 -9 0 -13 51 0 57
15 2 7 3 21 0 31 -3 12 -5 8 -6 -9z"/>
<path d="M204 2131 c1 -18 8 -27 29 -32 15 -4 27 -3 27 2 0 5 -11 9 -24 9 -18
0 -26 6 -29 23 -4 20 -4 20 -3 -2z"/>
<path d="M690 2135 c0 -20 -5 -25 -25 -25 -17 0 -25 -5 -24 -17 0 -11 3 -13 6
-5 7 17 33 15 33 -2 0 -8 -10 -17 -22 -19 -20 -4 -19 -4 5 -6 22 -1 27 -6 27
-26 0 -14 4 -25 9 -25 6 0 6 13 0 33 -5 17 -6 51 -3 75 3 23 4 42 0 42 -3 0
-6 -11 -6 -25z"/>
<path d="M1970 2135 c0 -20 -5 -25 -25 -25 -14 0 -25 -4 -25 -9 0 -5 12 -6 27
-2 18 5 29 16 34 34 4 15 3 27 -2 27 -5 0 -9 -11 -9 -25z"/>
<path d="M850 2085 c0 -20 5 -25 25 -25 20 0 25 5 25 25 0 20 -5 25 -25 25
-20 0 -25 -5 -25 -25z"/>
<path d="M1380 2085 c0 -20 5 -25 25 -25 20 0 25 5 25 25 0 20 -5 25 -25 25
-20 0 -25 -5 -25 -25z"/>
<path d="M2130 2085 c0 -21 4 -25 28 -24 23 2 24 2 5 6 -13 2 -23 11 -23 18 0
7 10 16 23 18 19 4 18 4 -5 6 -24 1 -28 -3 -28 -24z"/>
<path d="M110 2069 c0 -5 11 -9 25 -9 20 0 25 -5 25 -25 0 -14 4 -25 9 -25 5
0 6 12 2 27 -5 18 -16 29 -34 34 -15 4 -27 3 -27 -2z"/>
<path d="M231 2071 c-24 -6 -50 -61 -30 -61 5 0 9 11 9 25 0 20 5 25 25 25 14
0 25 5 25 10 0 6 -1 10 -2 9 -2 -1 -14 -4 -27 -8z"/>
<path d="M338 1835 c-2 -113 -2 -205 0 -205 2 0 63 55 137 121 l134 122 3 83
3 84 -137 0 -137 0 -3 -205z m230 109 l3 -52 -86 -78 c-48 -44 -91 -80 -96
-82 -11 -4 -13 251 -2 262 4 4 46 5 93 4 l85 -3 3 -51z"/>
<path d="M160 1926 c0 -18 -7 -26 -22 -29 -13 -2 -5 -3 17 0 22 2 55 -1 73 -6
19 -6 32 -6 32 0 0 5 -11 9 -25 9 -20 0 -25 5 -25 25 0 14 -4 25 -9 25 -5 0
-7 -9 -4 -20 4 -14 0 -20 -12 -20 -12 0 -16 6 -12 20 3 11 1 20 -4 20 -5 0 -9
-11 -9 -24z"/>
<path d="M1540 1927 c0 -21 7 -25 55 -34 30 -5 55 -6 55 -1 0 4 -13 8 -30 8
-25 0 -30 4 -30 25 0 14 -4 25 -9 25 -5 0 -7 -9 -4 -20 4 -14 0 -20 -12 -20
-12 0 -16 6 -12 20 3 11 1 20 -4 20 -5 0 -9 -10 -9 -23z"/>
<path d="M1760 1927 c0 -20 7 -25 50 -33 28 -6 50 -7 50 -2 0 4 -11 8 -25 8
-20 0 -25 5 -25 25 0 14 -4 25 -9 25 -5 0 -7 -9 -4 -20 4 -14 0 -20 -12 -20
-12 0 -16 6 -12 20 3 11 1 20 -4 20 -5 0 -9 -10 -9 -23z"/>
<path d="M723 1462 l-381 -337 -1 -507 c-1 -492 0 -508 18 -518 12 -6 115 -10
264 -10 l244 0 -2 218 c-2 172 0 222 11 239 14 23 17 23 233 23 198 0 219 -2
234 -18 15 -16 17 -48 17 -240 l0 -222 243 0 c180 0 248 3 260 13 16 11 18 50
18 516 l0 504 -383 338 c-211 187 -385 339 -388 339 -3 -1 -177 -153 -387
-338z m742 -23 c187 -165 348 -309 358 -321 16 -19 17 -57 17 -498 l0 -477
-62 -5 c-50 -5 -336 -3 -370 1 -5 1 -8 84 -8 186 0 295 9 287 -300 283 l-222
-3 -23 -29 c-23 -29 -24 -38 -27 -227 -2 -109 -7 -201 -11 -206 -10 -10 -394
-10 -420 0 -16 6 -17 38 -17 483 l0 477 42 38 c384 343 676 598 688 598 8 1
168 -134 355 -300z"/>
<path d="M160 1715 c0 -20 5 -25 25 -25 20 0 25 5 25 25 0 20 -5 25 -25 25
-20 0 -25 -5 -25 -25z"/>
<path d="M1760 1731 c0 -5 9 -7 20 -4 14 4 20 0 20 -12 0 -12 -6 -16 -20 -12
-11 3 -20 1 -20 -4 0 -5 11 -9 25 -9 20 0 25 5 25 25 0 20 -5 25 -25 25 -14 0
-25 -4 -25 -9z"/>
<path d="M1970 1715 c0 -20 5 -25 25 -25 20 0 25 5 25 25 0 20 -5 25 -25 25
-20 0 -25 -5 -25 -25z"/>
<path d="M110 1539 c0 -5 11 -9 25 -9 20 0 25 -5 25 -25 0 -14 4 -25 9 -25 5
0 7 9 4 20 -4 14 0 20 12 20 12 0 16 -6 12 -20 -3 -11 -1 -20 4 -20 5 0 9 11
9 25 0 20 5 25 25 25 14 0 25 4 25 9 0 5 -17 5 -39 -1 -25 -6 -51 -6 -75 0
-21 6 -36 7 -36 1z"/>
<path d="M160 975 c0 -20 5 -25 25 -25 20 0 25 5 25 25 0 20 -5 25 -25 25 -20
0 -25 -5 -25 -25z"/>
<path d="M1970 975 c0 -21 4 -25 28 -24 23 2 24 2 5 6 -13 2 -23 11 -23 19 0
17 26 19 33 2 3 -8 6 -6 6 5 1 12 -7 17 -24 17 -20 0 -25 -5 -25 -25z"/>
<path d="M2130 815 c0 -21 4 -25 28 -24 23 2 24 2 5 6 -13 2 -23 11 -23 18 0
7 10 16 23 18 19 4 18 4 -5 6 -24 1 -28 -3 -28 -24z"/>
<path d="M110 799 c0 -5 11 -9 25 -9 20 0 25 -5 25 -25 0 -20 5 -25 25 -25 20
0 25 5 25 25 0 20 5 25 25 25 14 0 25 4 25 9 0 5 -17 5 -39 -1 -25 -6 -51 -6
-75 0 -21 6 -36 7 -36 1z"/>
<path d="M1968 768 c2 -15 8 -28 12 -28 5 0 6 9 3 20 -4 14 0 20 12 20 12 0
16 -6 12 -20 -3 -11 -1 -20 4 -20 5 0 9 11 9 24 0 18 -6 25 -28 28 -26 4 -28
2 -24 -24z"/>
<path d="M2130 605 c0 -21 4 -25 28 -24 23 2 24 2 5 6 -25 5 -31 28 -10 36 7
3 5 6 -5 6 -13 1 -18 -7 -18 -24z"/>
<path d="M110 589 c0 -5 11 -9 25 -9 20 0 25 -5 25 -25 0 -14 4 -25 9 -25 5 0
6 12 2 27 -5 18 -16 29 -34 34 -15 4 -27 3 -27 -2z"/>
<path d="M230 591 c-18 -5 -25 -14 -26 -34 -1 -26 -1 -26 3 -2 3 19 11 25 29
25 13 0 24 5 24 10 0 6 -1 10 -2 9 -2 -1 -14 -4 -28 -8z"/>
<path d="M160 445 c0 -20 -5 -25 -25 -25 -14 0 -25 -4 -25 -9 0 -5 17 -5 39 1
25 6 51 6 75 0 21 -6 36 -7 36 -1 0 5 -11 9 -25 9 -20 0 -25 5 -25 25 0 14 -4
25 -9 25 -5 0 -7 -9 -4 -20 4 -14 0 -20 -12 -20 -12 0 -16 6 -12 20 3 11 1 20
-4 20 -5 0 -9 -11 -9 -25z"/>
<path d="M1010 461 c0 -5 9 -7 20 -4 14 4 20 0 20 -12 0 -12 -6 -16 -20 -12
-11 3 -20 1 -20 -4 0 -5 11 -9 25 -9 20 0 25 -5 25 -25 0 -14 4 -25 9 -25 5 0
7 9 4 19 -4 14 1 21 19 24 21 4 20 4 -4 6 -23 1 -28 6 -28 26 0 20 -5 25 -25
25 -14 0 -25 -4 -25 -9z"/>
<path d="M1970 451 c0 -11 -2 -25 -3 -33 -2 -7 -2 -10 0 -5 3 4 16 7 29 7 20
0 24 5 23 28 -2 23 -2 24 -6 5 -2 -13 -11 -23 -20 -23 -10 0 -14 6 -10 20 3
11 1 20 -4 20 -5 0 -9 -9 -9 -19z"/>
<path d="M1218 427 c-41 -9 -48 -14 -48 -34 0 -13 4 -23 9 -23 5 0 7 9 4 20
-4 14 0 20 12 20 12 0 16 -6 12 -20 -3 -11 -1 -20 4 -20 5 0 9 11 9 25 0 20 5
25 25 25 14 0 25 5 25 10 0 6 -1 9 -2 9 -2 -1 -24 -6 -50 -12z"/>
<path d="M160 235 c0 -20 5 -25 25 -25 20 0 25 5 25 25 0 20 -5 25 -25 25 -20
0 -25 -5 -25 -25z"/>
<path d="M1010 251 c0 -5 9 -7 20 -4 14 4 20 0 20 -10 0 -9 -10 -18 -22 -20
-20 -4 -19 -4 5 -6 22 -1 27 -6 28 -28 l1 -28 7 25 c4 14 4 27 -1 28 -4 2 -8
15 -8 28 0 19 -5 24 -25 24 -14 0 -25 -4 -25 -9z"/>
<path d="M1970 235 c0 -20 5 -25 25 -25 20 0 25 5 25 25 0 20 -5 25 -25 25
-20 0 -25 -5 -25 -25z"/>
<path d="M1235 219 c-23 -6 -30 -14 -30 -34 0 -14 3 -25 8 -25 4 0 7 11 7 25
0 20 5 25 25 25 14 0 25 5 25 10 0 6 -1 10 -2 9 -2 0 -16 -5 -33 -10z"/>
<path d="M1060 76 c0 -19 -6 -26 -27 -29 -27 -5 -27 -5 2 -3 21 1 31 7 34 21
2 11 8 23 15 27 7 5 5 8 -6 8 -12 0 -18 -8 -18 -24z"/>
</g>
</svg>
