<?xml version="1.0" standalone="no"?>
<!DOCTYPE svg PUBLIC "-//W3C//DTD SVG 20010904//EN"
 "http://www.w3.org/TR/2001/REC-SVG-20010904/DTD/svg10.dtd">
<svg version="1.0" xmlns="http://www.w3.org/2000/svg"
 width="225.000000pt" height="225.000000pt" viewBox="0 0 225.000000 225.000000"
 preserveAspectRatio="xMidYMid meet">
<metadata>
Created by potrace 1.10, written by Peter Selinger 2001-2011
</metadata>
<g transform="translate(0.000000,225.000000) scale(0.100000,-0.100000)"
fill="#000000" stroke="none">
<path d="M142 2183 l-2 -72 -72 -4 -73 -3 78 -2 77 -2 0 -75 0 -75 -77 -2 -78
-2 73 -3 72 -4 0 -64 0 -64 -72 -4 -73 -3 78 -2 77 -2 0 -75 0 -75 -77 -2 -78
-2 73 -3 72 -4 0 -64 0 -64 -72 -4 -73 -3 78 -2 77 -2 0 -75 0 -75 -77 -2 -78
-2 73 -3 72 -4 0 -64 0 -64 -72 -4 -73 -3 78 -2 77 -2 0 -75 0 -75 -77 -2 -78
-2 73 -3 72 -4 0 -64 0 -64 -72 -4 -73 -3 78 -2 77 -2 0 -75 0 -75 -77 -2 -78
-2 73 -3 72 -4 0 -64 0 -64 -72 -4 -73 -3 78 -2 77 -2 0 -75 0 -75 -77 -2 -78
-2 73 -3 72 -4 0 -64 0 -64 -72 -4 -73 -3 78 -2 77 -2 0 -75 0 -75 -77 -2 -78
-2 72 -3 72 -4 4 -72 3 -72 2 78 2 77 75 0 75 0 2 -77 2 -78 3 72 4 73 64 0
64 0 4 -72 3 -73 2 78 2 77 75 0 75 0 2 -77 2 -78 3 73 4 72 64 0 64 0 4 -72
3 -73 2 78 2 77 75 0 75 0 2 -77 2 -78 3 73 4 72 64 0 64 0 4 -73 3 -72 2 78
2 77 75 0 75 0 2 -77 2 -78 3 73 4 72 64 0 64 0 4 -72 3 -73 2 78 2 77 75 0
75 0 2 -77 2 -78 3 73 4 72 64 0 64 0 4 -72 3 -73 2 78 2 77 75 0 75 0 2 -77
2 -78 3 73 4 72 64 0 64 0 4 -72 3 -73 2 78 2 77 75 0 75 0 2 -77 2 -78 3 72
4 72 72 4 72 3 -77 2 -78 2 0 75 0 75 78 2 77 2 -72 3 -73 4 0 64 0 64 73 4
72 3 -77 2 -78 2 0 75 0 75 78 2 77 2 -72 3 -73 4 0 64 0 64 73 4 72 3 -77 2
-78 2 0 75 0 75 78 2 77 2 -72 3 -73 4 0 64 0 64 73 4 72 3 -77 2 -78 2 0 75
0 75 78 2 77 2 -72 3 -73 4 0 64 0 64 73 4 72 3 -77 2 -78 2 0 75 0 75 78 2
77 2 -72 3 -73 4 0 64 0 64 73 4 72 3 -77 2 -78 2 0 75 0 75 78 2 77 2 -72 3
-73 4 0 64 0 64 73 4 72 3 -77 2 -78 2 0 75 0 75 78 2 77 2 -72 3 -72 4 -4 72
-3 72 -2 -77 -2 -78 -75 0 -75 0 -2 78 -2 77 -3 -72 -4 -73 -64 0 -64 0 -4 73
-3 72 -2 -77 -2 -78 -75 0 -75 0 -2 78 -2 77 -3 -72 -4 -73 -64 0 -64 0 -4 73
-3 72 -2 -77 -2 -78 -75 0 -75 0 -2 78 -2 77 -3 -72 -4 -73 -64 0 -64 0 -4 73
-3 72 -2 -77 -2 -78 -75 0 -75 0 -2 78 -2 77 -3 -72 -4 -73 -64 0 -64 0 -4 73
-3 72 -2 -77 -2 -78 -75 0 -75 0 -2 78 -2 77 -3 -72 -4 -73 -64 0 -64 0 -4 73
-3 72 -2 -77 -2 -78 -75 0 -75 0 -2 78 -2 77 -3 -72 -4 -73 -64 0 -64 0 -4 73
-3 72 -2 -77 -2 -78 -75 0 -74 0 -4 78 -3 77 -2 -72z m308 -158 l0 -75 -75 0
-75 0 0 75 0 75 75 0 75 0 0 -75z m300 0 l0 -75 -75 0 -75 0 0 75 0 75 75 0
75 0 0 -75z m300 0 l0 -75 -75 0 -75 0 0 75 0 75 75 0 75 0 0 -75z m300 0 l0
-75 -75 0 -75 0 0 75 0 75 75 0 75 0 0 -75z m300 0 l0 -75 -75 0 -75 0 0 75 0
75 75 0 75 0 0 -75z m300 0 l0 -75 -75 0 -75 0 0 75 0 75 75 0 75 0 0 -75z
m-1660 0 l0 -65 -65 0 -65 0 0 65 0 65 65 0 65 0 0 -65z m300 0 l0 -65 -65 0
-65 0 0 65 0 65 65 0 65 0 0 -65z m300 0 l0 -65 -65 0 -65 0 0 65 0 65 65 0
65 0 0 -65z m300 0 l0 -65 -65 0 -65 0 0 65 0 65 65 0 65 0 0 -65z m300 0 l0
-65 -65 0 -65 0 0 65 0 65 65 0 65 0 0 -65z m300 0 l0 -65 -65 0 -65 0 0 65 0
65 65 0 65 0 0 -65z m300 0 l0 -65 -65 0 -65 0 0 65 0 65 65 0 65 0 0 -65z
m-1790 -150 l0 -75 -75 0 -75 0 0 75 0 75 75 0 75 0 0 -75z m300 0 l0 -75 -75
0 -75 0 0 75 0 75 75 0 75 0 0 -75z m300 0 l0 -75 -75 0 -75 0 0 75 0 75 75 0
75 0 0 -75z m300 0 l0 -75 -75 0 -75 0 0 75 0 75 75 0 75 0 0 -75z m300 0 l0
-75 -75 0 -75 0 0 75 0 75 75 0 75 0 0 -75z m300 0 l0 -75 -75 0 -75 0 0 75 0
75 75 0 75 0 0 -75z m300 0 l0 -75 -75 0 -75 0 0 75 0 75 75 0 75 0 0 -75z
m-1660 0 l0 -65 -65 0 -65 0 0 65 0 65 65 0 65 0 0 -65z m300 0 l0 -65 -65 0
-65 0 0 65 0 65 65 0 65 0 0 -65z m300 0 l0 -65 -65 0 -65 0 0 65 0 65 65 0
65 0 0 -65z m300 0 l0 -65 -65 0 -65 0 0 65 0 65 65 0 65 0 0 -65z m300 0 l0
-65 -65 0 -65 0 0 65 0 65 65 0 65 0 0 -65z m300 0 l0 -65 -65 0 -65 0 0 65 0
65 65 0 65 0 0 -65z m-1490 -150 l0 -75 -75 0 -75 0 0 75 0 75 75 0 75 0 0
-75z m300 0 l0 -75 -75 0 -75 0 0 75 0 75 75 0 75 0 0 -75z m300 0 l0 -75 -75
0 -75 0 0 75 0 75 75 0 75 0 0 -75z m300 0 l0 -75 -75 0 -75 0 0 75 0 75 75 0
75 0 0 -75z m300 0 l0 -75 -75 0 -75 0 0 75 0 75 75 0 75 0 0 -75z m300 0 l0
-75 -75 0 -75 0 0 75 0 75 75 0 75 0 0 -75z m-1660 0 l0 -65 -65 0 -65 0 0 65
0 65 65 0 65 0 0 -65z m300 0 l0 -65 -65 0 -65 0 0 65 0 65 65 0 65 0 0 -65z
m300 0 l0 -65 -65 0 -65 0 0 65 0 65 65 0 65 0 0 -65z m300 0 l0 -65 -65 0
-65 0 0 65 0 65 65 0 65 0 0 -65z m300 0 l0 -65 -65 0 -65 0 0 65 0 65 65 0
65 0 0 -65z m300 0 l0 -65 -65 0 -65 0 0 65 0 65 65 0 65 0 0 -65z m300 0 l0
-65 -65 0 -65 0 0 65 0 65 65 0 65 0 0 -65z m-1790 -150 l0 -75 -75 0 -75 0 0
75 0 75 75 0 75 0 0 -75z m300 0 l0 -75 -75 0 -75 0 0 75 0 75 75 0 75 0 0
-75z m302 8 l2 -68 3 63 4 64 70 -4 c38 -2 69 0 69 5 0 4 34 7 75 7 75 0 75 0
76 -27 2 -24 2 -25 6 -5 4 20 10 22 69 22 l64 0 0 -64 0 -65 -32 -4 c-32 -4
-32 -4 5 -5 l37 -2 0 -75 0 -75 -32 -1 c-30 -2 -30 -2 -6 -6 15 -2 29 -12 31
-21 3 -12 5 -10 6 6 1 21 5 22 76 22 l75 0 0 -75 c0 -64 -2 -75 -17 -76 -11 0
-13 -3 -5 -6 8 -3 12 -27 12 -68 0 -58 -2 -64 -22 -68 -20 -4 -19 -4 5 -6 27
-1 27 -1 27 -76 l0 -75 -75 0 -75 0 0 -75 c0 -75 0 -75 -27 -76 -24 -2 -25 -2
-5 -6 20 -4 22 -10 22 -68 0 -62 -1 -64 -27 -68 -26 -4 -26 -4 5 -6 l32 -1 0
-75 0 -75 -75 0 -75 0 -2 63 -2 62 -3 -57 -4 -58 -64 0 -64 0 -4 63 -3 62 -2
-67 -2 -68 -76 0 -76 0 4 78 3 77 -77 -3 -78 -4 0 76 0 76 75 0 75 0 -2 43 -1
42 -4 -37 -4 -38 -65 0 -64 0 0 64 0 65 33 4 c31 4 31 4 -5 5 l-38 2 -2 58 -2
57 -3 -52 -4 -53 -65 0 -64 0 0 65 0 64 58 4 57 3 -62 2 -63 2 0 75 0 75 58 2
57 2 -52 3 -53 4 0 65 0 64 64 0 65 0 4 -32 c4 -32 4 -32 5 5 l2 37 78 2 77 2
-72 3 -73 4 0 65 0 66 70 -4 c40 -2 71 1 74 7 2 6 -26 9 -75 7 l-79 -4 0 76 0
76 75 0 75 0 2 -67z m598 -8 l0 -75 -75 0 -75 0 0 75 0 75 75 0 75 0 0 -75z
m300 0 l0 -75 -75 0 -75 0 0 75 0 75 75 0 75 0 0 -75z m300 0 l0 -75 -75 0
-75 0 0 75 0 75 75 0 75 0 0 -75z m-1660 0 l0 -65 -65 0 -65 0 0 65 0 65 65 0
65 0 0 -65z m300 0 l0 -65 -65 0 -65 0 0 65 0 65 65 0 65 0 0 -65z m900 0 l0
-65 -65 0 -65 0 0 65 0 65 65 0 65 0 0 -65z m300 0 l0 -65 -65 0 -65 0 0 65 0
65 65 0 65 0 0 -65z m-1490 -150 l0 -75 -75 0 -75 0 0 75 0 75 75 0 75 0 0
-75z m300 0 l0 -75 -75 0 -75 0 0 75 0 75 75 0 75 0 0 -75z m900 0 l0 -75 -75
0 -75 0 0 75 0 75 75 0 75 0 0 -75z m300 0 l0 -75 -75 0 -75 0 0 75 0 75 75 0
75 0 0 -75z m-1660 0 l0 -65 -65 0 -65 0 0 65 0 65 65 0 65 0 0 -65z m300 0
l0 -65 -65 0 -65 0 0 65 0 65 65 0 65 0 0 -65z m900 0 l0 -65 -65 0 -65 0 0
65 0 65 65 0 65 0 0 -65z m300 0 l0 -65 -65 0 -65 0 0 65 0 65 65 0 65 0 0
-65z m300 0 l0 -65 -65 0 -65 0 0 65 0 65 65 0 65 0 0 -65z m-1790 -150 l0
-75 -75 0 -75 0 0 75 0 75 75 0 75 0 0 -75z m300 0 l0 -75 -75 0 -75 0 0 75 0
75 75 0 75 0 0 -75z m1200 0 l0 -75 -75 0 -75 0 0 75 0 75 75 0 75 0 0 -75z
m300 0 l0 -75 -75 0 -75 0 0 75 0 75 75 0 75 0 0 -75z m-1660 0 l0 -65 -65 0
-65 0 0 65 0 65 65 0 65 0 0 -65z m1200 0 l0 -65 -65 0 -65 0 0 65 0 65 65 0
65 0 0 -65z m300 0 l0 -65 -65 0 -65 0 0 65 0 65 65 0 65 0 0 -65z m-1490
-150 l0 -75 -75 0 -75 0 0 75 0 75 75 0 75 0 0 -75z m1200 0 l0 -75 -75 0 -75
0 0 75 0 75 75 0 75 0 0 -75z m300 0 l0 -75 -75 0 -75 0 0 75 0 75 75 0 75 0
0 -75z m-1660 0 l0 -65 -65 0 -65 0 0 65 0 65 65 0 65 0 0 -65z m300 0 l0 -65
-65 0 -65 0 0 65 0 65 65 0 65 0 0 -65z m1200 0 l0 -65 -65 0 -65 0 0 65 0 65
65 0 65 0 0 -65z m300 0 l0 -65 -65 0 -65 0 0 65 0 65 65 0 65 0 0 -65z
m-1790 -150 l0 -75 -75 0 -75 0 0 75 0 75 75 0 75 0 0 -75z m300 0 l0 -75 -75
0 -75 0 0 75 0 75 75 0 75 0 0 -75z m1200 0 l0 -75 -75 0 -75 0 0 75 0 75 75
0 75 0 0 -75z m300 0 l0 -75 -75 0 -75 0 0 75 0 75 75 0 75 0 0 -75z m-1660 0
l0 -65 -65 0 -65 0 0 65 0 65 65 0 65 0 0 -65z m1200 0 l0 -65 -65 0 -65 0 0
65 0 65 65 0 65 0 0 -65z m300 0 l0 -65 -65 0 -65 0 0 65 0 65 65 0 65 0 0
-65z m-1490 -150 l0 -75 -75 0 -75 0 0 75 0 75 75 0 75 0 0 -75z m300 0 l0
-75 -75 0 -75 0 0 75 0 75 75 0 75 0 0 -75z m900 0 l0 -75 -75 0 -75 0 0 75 0
75 75 0 75 0 0 -75z m300 0 l0 -75 -75 0 -75 0 0 75 0 75 75 0 75 0 0 -75z
m-1660 0 l0 -65 -65 0 -65 0 0 65 0 65 65 0 65 0 0 -65z m300 0 l0 -65 -65 0
-65 0 0 65 0 65 65 0 65 0 0 -65z m900 0 l0 -65 -65 0 -65 0 0 65 0 65 65 0
65 0 0 -65z m300 0 l0 -65 -65 0 -65 0 0 65 0 65 65 0 65 0 0 -65z m300 0 l0
-65 -65 0 -65 0 0 65 0 65 65 0 65 0 0 -65z m-1790 -150 l0 -75 -75 0 -75 0 0
75 0 75 75 0 75 0 0 -75z m300 0 l0 -75 -75 0 -75 0 0 75 0 75 75 0 75 0 0
-75z m900 0 l0 -75 -75 0 -75 0 0 75 0 75 75 0 75 0 0 -75z m300 0 l0 -75 -75
0 -75 0 0 75 0 75 75 0 75 0 0 -75z m300 0 l0 -75 -75 0 -75 0 0 75 0 75 75 0
75 0 0 -75z m-1660 0 l0 -65 -65 0 -65 0 0 65 0 65 65 0 65 0 0 -65z m300 0
l0 -65 -65 0 -65 0 0 65 0 65 65 0 65 0 0 -65z m900 0 l0 -65 -65 0 -65 0 0
65 0 65 65 0 65 0 0 -65z m300 0 l0 -65 -65 0 -65 0 0 65 0 65 65 0 65 0 0
-65z m-1490 -150 l0 -75 -75 0 -75 0 0 75 0 75 75 0 75 0 0 -75z m300 0 l0
-75 -75 0 -75 0 0 75 0 75 75 0 75 0 0 -75z m900 0 l0 -75 -75 0 -75 0 0 75 0
75 75 0 75 0 0 -75z m300 0 l0 -75 -75 0 -75 0 0 75 0 75 75 0 75 0 0 -75z
m-1660 0 l0 -65 -65 0 -65 0 0 65 0 65 65 0 65 0 0 -65z m300 0 l0 -65 -65 0
-65 0 0 65 0 65 65 0 65 0 0 -65z m300 0 l0 -65 -65 0 -65 0 0 65 0 65 65 0
65 0 0 -65z m600 0 l0 -65 -65 0 -65 0 0 65 0 65 65 0 65 0 0 -65z m300 0 l0
-65 -65 0 -65 0 0 65 0 65 65 0 65 0 0 -65z m300 0 l0 -65 -65 0 -65 0 0 65 0
65 65 0 65 0 0 -65z m-1790 -150 l0 -75 -75 0 -75 0 0 75 0 75 75 0 75 0 0
-75z m300 0 l0 -75 -75 0 -75 0 0 75 0 75 75 0 75 0 0 -75z m300 0 l0 -75 -75
0 -75 0 0 75 0 75 75 0 75 0 0 -75z m300 0 l0 -75 -75 0 -75 0 0 75 0 75 75 0
75 0 0 -75z m300 0 l0 -75 -75 0 -75 0 0 75 0 75 75 0 75 0 0 -75z m300 0 l0
-75 -75 0 -75 0 0 75 0 75 75 0 75 0 0 -75z m300 0 l0 -75 -75 0 -75 0 0 75 0
75 75 0 75 0 0 -75z m-1660 0 l0 -65 -65 0 -65 0 0 65 0 65 65 0 65 0 0 -65z
m300 0 l0 -65 -65 0 -65 0 0 65 0 65 65 0 65 0 0 -65z m300 0 l0 -65 -65 0
-65 0 0 65 0 65 65 0 65 0 0 -65z m300 0 l0 -65 -65 0 -65 0 0 65 0 65 65 0
65 0 0 -65z m300 0 l0 -65 -65 0 -65 0 0 65 0 65 65 0 65 0 0 -65z m300 0 l0
-65 -65 0 -65 0 0 65 0 65 65 0 65 0 0 -65z m-1490 -150 l0 -75 -75 0 -75 0 0
75 0 75 75 0 75 0 0 -75z m300 0 l0 -75 -75 0 -75 0 0 75 0 75 75 0 75 0 0
-75z m300 0 l0 -75 -75 0 -75 0 0 75 0 75 75 0 75 0 0 -75z m300 0 l0 -75 -75
0 -75 0 0 75 0 75 75 0 75 0 0 -75z m300 0 l0 -75 -75 0 -75 0 0 75 0 75 75 0
75 0 0 -75z m300 0 l0 -75 -75 0 -75 0 0 75 0 75 75 0 75 0 0 -75z m-1660 0
l0 -65 -65 0 -65 0 0 65 0 65 65 0 65 0 0 -65z m300 0 l0 -65 -65 0 -65 0 0
65 0 65 65 0 65 0 0 -65z m300 0 l0 -65 -65 0 -65 0 0 65 0 65 65 0 65 0 0
-65z m300 0 l0 -65 -65 0 -65 0 0 65 0 65 65 0 65 0 0 -65z m300 0 l0 -65 -65
0 -65 0 0 65 0 65 65 0 65 0 0 -65z m300 0 l0 -65 -65 0 -65 0 0 65 0 65 65 0
65 0 0 -65z m300 0 l0 -65 -65 0 -65 0 0 65 0 65 65 0 65 0 0 -65z"/>
<path d="M1035 1576 c-41 -18 -83 -69 -90 -109 -4 -18 -5 -108 -3 -199 3 -181
7 -194 71 -242 38 -28 112 -27 159 2 61 38 68 66 68 269 0 207 -7 232 -80 270
-49 26 -81 28 -125 9z m121 -54 c40 -31 44 -55 44 -227 0 -181 -7 -211 -55
-233 -46 -21 -92 -15 -127 17 l-33 29 0 187 0 187 33 29 c38 34 103 40 138 11z"/>
<path d="M777 1253 c-4 -3 -7 -39 -7 -78 0 -172 71 -268 250 -340 28 -11 39
-57 20 -80 -6 -8 -33 -17 -58 -21 -70 -10 -84 -20 -80 -57 l3 -32 182 -3 c174
-2 183 -2 193 18 7 14 8 26 0 39 -11 21 -23 26 -88 36 -83 13 -83 92 0 114 87
23 182 118 208 211 18 61 24 155 11 178 -13 24 -52 30 -69 10 -5 -7 -12 -47
-14 -89 -3 -63 -8 -84 -33 -125 -17 -27 -51 -62 -75 -79 -37 -25 -57 -30 -117
-33 -63 -4 -77 -1 -123 24 -88 48 -130 125 -130 239 0 48 -4 64 -16 69 -21 8
-49 8 -57 -1z m353 -378 c0 -15 -25 -55 -35 -55 -11 0 -45 41 -45 55 0 3 18 5
40 5 22 0 40 -2 40 -5z m-12 -135 c7 -11 27 -29 45 -40 l32 -20 -105 0 -105 1
37 20 c21 10 42 28 48 39 14 26 32 25 48 0z"/>
</g>
</svg>
