<?xml version="1.0" standalone="no"?>
<!DOCTYPE svg PUBLIC "-//W3C//DTD SVG 20010904//EN"
 "http://www.w3.org/TR/2001/REC-SVG-20010904/DTD/svg10.dtd">
<svg version="1.0" xmlns="http://www.w3.org/2000/svg"
 width="225.000000pt" height="225.000000pt" viewBox="0 0 225.000000 225.000000"
 preserveAspectRatio="xMidYMid meet">
<metadata>
Created by potrace 1.10, written by Peter Selinger 2001-2011
</metadata>
<g transform="translate(0.000000,225.000000) scale(0.100000,-0.100000)"
fill="#000000" stroke="none">
<path d="M1223 1980 c0 -47 2 -66 4 -42 2 23 2 61 0 85 -2 23 -4 4 -4 -43z"/>
<path d="M1573 1995 c0 -38 2 -53 4 -32 2 20 2 52 0 70 -2 17 -4 1 -4 -38z"/>
<path d="M1923 1995 c0 -38 2 -53 4 -32 2 20 2 52 0 70 -2 17 -4 1 -4 -38z"/>
<path d="M173 1970 c0 -41 2 -58 4 -37 2 20 2 54 0 75 -2 20 -4 3 -4 -38z"/>
<path d="M706 1960 c-127 -22 -215 -68 -307 -159 -230 -230 -207 -608 51 -813
176 -140 442 -154 626 -33 l51 33 69 -69 68 -69 -27 -28 c-15 -15 -27 -35 -27
-43 0 -19 511 -529 531 -529 22 0 209 192 209 215 0 19 -474 505 -514 527 -15
8 -25 3 -57 -28 l-39 -38 -70 69 -69 68 25 30 c127 151 139 438 26 614 -42 65
-125 145 -195 186 -89 54 -249 84 -351 67z m169 -41 c22 -5 49 -11 60 -13 68
-12 236 -122 227 -148 -1 -5 2 -8 7 -8 13 0 81 -105 81 -125 0 -9 4 -14 9 -10
6 3 10 -3 10 -12 0 -10 4 -36 10 -58 22 -84 7 -315 -21 -315 -4 0 -8 -7 -8
-15 0 -15 -19 -55 -31 -65 -14 -11 -39 -70 -39 -91 0 -14 25 -48 68 -90 55
-57 73 -69 100 -69 21 0 32 5 32 14 0 14 21 26 43 26 7 0 32 -19 57 -42 25
-22 38 -38 30 -34 -8 4 -4 -1 10 -11 37 -27 280 -273 280 -284 0 -5 5 -9 11
-9 11 0 74 -64 89 -91 7 -13 -9 -34 -73 -97 l-82 -80 -28 20 c-15 11 -24 24
-21 29 3 5 1 8 -4 7 -14 -4 -302 284 -295 295 3 6 1 7 -4 4 -6 -4 -38 23 -72
59 -58 62 -75 94 -50 94 6 0 8 7 5 15 -3 9 1 18 10 22 13 5 13 7 2 14 -10 7
-10 9 1 9 11 0 9 4 -5 15 -10 8 -16 15 -12 15 4 0 -12 19 -37 42 -25 23 -45
49 -45 57 0 8 -3 12 -6 8 -4 -3 -18 0 -33 8 -23 11 -31 11 -64 -4 -21 -10 -34
-21 -30 -25 5 -4 3 -6 -2 -4 -14 4 -75 -23 -75 -34 0 -5 -6 -8 -12 -6 -7 1
-37 -4 -67 -11 -63 -16 -221 -10 -266 10 -16 7 -35 13 -40 14 -6 0 -28 10 -48
23 -21 12 -40 22 -43 22 -2 0 -18 12 -35 28 -17 15 -37 26 -43 24 -6 -2 -8 0
-4 4 4 4 -5 22 -20 40 -56 69 -77 98 -62 89 10 -5 9 -1 -3 12 -32 37 -57 137
-57 229 0 60 4 84 13 84 9 0 9 2 -1 9 -10 6 -11 14 -4 27 6 11 16 38 23 62 14
48 25 60 42 43 7 -7 6 -20 -6 -43 -31 -65 -47 -131 -34 -147 9 -12 9 -13 -1
-7 -29 18 19 -196 59 -259 16 -25 29 -50 29 -55 0 -5 9 -12 20 -15 11 -4 18
-11 15 -16 -4 -5 5 -14 18 -20 14 -6 30 -21 37 -33 13 -25 146 -90 163 -79 5
3 7 1 4 -4 -4 -6 5 -12 21 -13 50 -5 187 -4 224 2 55 9 157 67 209 119 52 51
116 143 122 174 2 11 8 29 13 40 11 25 11 221 0 255 -4 14 -9 32 -10 40 -1 8
-11 31 -21 50 -11 19 -19 39 -20 43 0 10 -115 127 -115 118 -1 -3 -10 5 -20
18 -11 13 -20 20 -20 17 0 -4 -19 4 -42 18 -56 32 -134 54 -178 50 -55 -5 -94
-7 -105 -4 -5 2 -17 1 -25 -3 -8 -3 -40 -13 -69 -23 -30 -9 -60 -21 -65 -25
-6 -5 -31 -23 -56 -42 -52 -38 -133 -134 -125 -148 9 -14 -11 -11 -23 4 -16
19 -14 25 15 58 16 17 27 37 25 43 -2 6 -1 8 2 5 3 -3 26 13 51 36 48 45 143
100 190 110 17 4 46 10 65 15 51 11 129 11 175 -1z m20 -74 c32 -9 80 -27 107
-42 58 -32 147 -123 177 -181 102 -199 39 -441 -147 -568 -78 -54 -144 -74
-244 -74 -129 0 -221 38 -314 130 -134 132 -165 332 -80 505 39 79 116 159
187 196 95 48 211 60 314 34z"/>
<path d="M873 1630 c0 -47 2 -66 4 -42 2 23 2 61 0 85 -2 23 -4 4 -4 -43z"/>
<path d="M523 1280 c0 -47 2 -66 4 -42 2 23 2 61 0 85 -2 23 -4 4 -4 -43z"/>
<path d="M873 1280 c0 -47 2 -66 4 -42 2 23 2 61 0 85 -2 23 -4 4 -4 -43z"/>
<path d="M172 1633 c-1 -47 -6 -83 -12 -83 -5 0 -10 -5 -10 -12 0 -8 5 -7 15
3 12 12 15 33 12 95 l-3 79 -2 -82z"/>
<path d="M1573 1630 c0 -47 2 -66 4 -42 2 23 2 61 0 85 -2 23 -4 4 -4 -43z"/>
<path d="M1923 1630 c0 -47 2 -66 4 -42 2 23 2 61 0 85 -2 23 -4 4 -4 -43z"/>
<path d="M1923 1280 c0 -47 2 -66 4 -42 2 23 2 61 0 85 -2 23 -4 4 -4 -43z"/>
<path d="M173 930 c0 -47 2 -66 4 -42 2 23 2 61 0 85 -2 23 -4 4 -4 -43z"/>
<path d="M1923 930 c0 -47 2 -66 4 -42 2 23 2 61 0 85 -2 23 -4 4 -4 -43z"/>
<path d="M524 585 c0 -49 1 -71 3 -48 2 23 2 64 0 90 -2 26 -3 8 -3 -42z"/>
<path d="M173 580 c0 -47 2 -66 4 -42 2 23 2 61 0 85 -2 23 -4 4 -4 -43z"/>
<path d="M873 580 c0 -47 2 -66 4 -42 2 23 2 61 0 85 -2 23 -4 4 -4 -43z"/>
<path d="M1223 580 c0 -47 2 -66 4 -42 2 23 2 61 0 85 -2 23 -4 4 -4 -43z"/>
<path d="M173 230 c0 -47 2 -66 4 -42 2 23 2 61 0 85 -2 23 -4 4 -4 -43z"/>
<path d="M523 230 c0 -47 2 -66 4 -42 2 23 2 61 0 85 -2 23 -4 4 -4 -43z"/>
<path d="M1223 230 c0 -47 2 -66 4 -42 2 23 2 61 0 85 -2 23 -4 4 -4 -43z"/>
<path d="M1573 230 c0 -47 2 -66 4 -42 2 23 2 61 0 85 -2 23 -4 4 -4 -43z"/>
<path d="M1923 230 c0 -47 2 -66 4 -42 2 23 2 61 0 85 -2 23 -4 4 -4 -43z"/>
<path d="M873 210 c0 -36 2 -50 4 -32 2 17 2 47 0 65 -2 17 -4 3 -4 -33z"/>
</g>
</svg>
