<?xml version="1.0" standalone="no"?>
<!DOCTYPE svg PUBLIC "-//W3C//DTD SVG 20010904//EN"
 "http://www.w3.org/TR/2001/REC-SVG-20010904/DTD/svg10.dtd">
<svg version="1.0" xmlns="http://www.w3.org/2000/svg"
 width="300.000000pt" height="166.000000pt" viewBox="0 0 300.000000 166.000000"
 preserveAspectRatio="xMidYMid meet">
<metadata>
Created by potrace 1.10, written by Peter Selinger 2001-2011
</metadata>
<g transform="translate(0.000000,166.000000) scale(0.100000,-0.100000)"
fill="#000000" stroke="none">
<path d="M1680 1506 c-19 -6 -143 -75 -275 -153 -132 -77 -258 -151 -280 -163
-95 -55 -144 -126 -152 -220 -11 -118 58 -228 166 -267 28 -10 51 -21 51 -24
0 -4 -21 -17 -47 -30 -102 -50 -161 -129 -170 -229 -12 -134 74 -249 209 -279
89 -20 128 -5 428 170 340 199 347 204 384 270 27 47 31 64 31 129 0 57 -6 85
-22 116 -29 54 -89 107 -146 129 -26 10 -47 20 -47 24 0 3 31 22 68 41 175 93
204 309 58 437 -25 22 -62 45 -84 51 -51 15 -127 15 -172 -2z m157 -31 c37
-11 62 -28 96 -63 107 -115 80 -267 -64 -359 -57 -36 -79 -68 -64 -93 4 -6 25
-22 48 -37 120 -74 165 -167 133 -276 -22 -77 -67 -116 -247 -221 -483 -280
-426 -251 -505 -251 -61 0 -77 4 -120 30 -71 44 -109 110 -109 189 1 96 37
151 148 225 34 23 47 38 47 56 0 25 -11 35 -92 85 -59 36 -98 100 -103 169 -7
111 37 172 196 266 60 36 114 65 119 65 6 0 10 5 10 10 0 6 4 10 9 10 8 0 274
153 296 170 17 13 99 39 126 40 14 0 48 -7 76 -15z"/>
<path d="M1346 1028 c-13 -18 -16 -55 -16 -198 0 -189 7 -220 53 -220 23 0
292 150 327 182 28 26 25 52 -7 78 -54 42 -298 180 -320 180 -12 0 -29 -10
-37 -22z m191 -95 c88 -51 165 -93 172 -93 17 0 13 -17 -6 -24 -22 -9 -289
-161 -320 -183 l-23 -15 0 207 c0 113 4 205 8 203 4 -1 80 -45 169 -95z"/>
</g>
</svg>
